# xmcd CD database file
#
# Track frame offsets:
#	150
#	13542
#	27827
#	39940
#	55577
#	78577
#	94575
#	102242
#	136825
#	151585
#	165307
#	179150
#	192937
#	208412
#	223082
#	235372
#	248020
#	262710
#	273190
#	286367
#
# Disc length: 3941 seconds
#
# Revision: 0
# Processed by: cddbd v1.5.2PL0 Copyright (c) Steve Scherf et al.
# Submitted via: CDex 1.70beta2
#
DISCID=070f6314
DTITLE=Music Hall Story - Music Hall Story
DYEAR=1900
DGENRE=Jazz
TTITLE0=Singing in the rain
TTITLE1=Just a gigolo
TTITLE2=Tea for two
TTITLE3=Unforgettable
TTITLE4=My heart belongs to daddy
TTITLE5=My way
TTITLE6=I can't give you anything but love
TTITLE7=let's face the music and dance
TTITLE8=Jezebel
TTITLE9=Smoke smoke that cigarette
TTITLE10=Embraceable you
TTITLE11=The more I see you
TTITLE12=Bye bye baby
TTITLE13=Fool rush in
TTITLE14=Dream dancing
TTITLE15=Over the rainbow
TTITLE16=Mona lisa
TTITLE17=Release me
TTITLE18=Whan a man loves a woman
TTITLE19=Ain't no sunshine
EXTD=
EXTT0=
EXTT1=
EXTT2=
EXTT3=
EXTT4=
EXTT5=
EXTT6=
EXTT7=
EXTT8=
EXTT9=
EXTT10=
EXTT11=
EXTT12=
EXTT13=
EXTT14=
EXTT15=
EXTT16=
EXTT17=
EXTT18=
EXTT19=
PLAYORDER=
